<?xml version="1.0" encoding="UTF-8" standalone="no"?><!DOCTYPE svg PUBLIC "-//W3C//DTD SVG 1.1//EN" "http://www.w3.org/Graphics/SVG/1.1/DTD/svg11.dtd"><svg width="100%" height="100%" viewBox="0 0 3701 3701" version="1.1" xmlns="http://www.w3.org/2000/svg" xmlns:xlink="http://www.w3.org/1999/xlink" xml:space="preserve" xmlns:serif="http://www.serif.com/" style="fill-rule:evenodd;clip-rule:evenodd;stroke-linecap:square;stroke-miterlimit:1.5;"><g><g id="Verticle"><path d="M511.65,399.306l0,2902.18" style="fill:none;stroke:#fff;stroke-width:16.67px;"/><path d="M669.856,399.306l0,2902.18" style="fill:none;stroke:#fff;stroke-width:16.67px;"/><path d="M827.337,399.306l-0,2902.18" style="fill:none;stroke:#fff;stroke-width:16.67px;"/><path d="M984.817,399.306l0,2902.18" style="fill:none;stroke:#fff;stroke-width:16.67px;"/><path d="M1142.3,399.306l0,2902.18" style="fill:none;stroke:#fff;stroke-width:16.67px;"/><path d="M1299.78,399.306l-0,2902.18" style="fill:none;stroke:#fff;stroke-width:16.67px;"/><path d="M1455.91,399.306l-0,2902.18" style="fill:none;stroke:#fff;stroke-width:16.67px;"/><path d="M1614.11,399.306l-0,2902.18" style="fill:none;stroke:#fff;stroke-width:16.67px;"/><path d="M1771.59,399.306l-0,2902.18" style="fill:none;stroke:#fff;stroke-width:16.67px;"/><path d="M1929.07,399.306l0,2902.18" style="fill:none;stroke:#fff;stroke-width:16.67px;"/><path d="M2086.55,399.306l-0,2902.18" style="fill:none;stroke:#fff;stroke-width:16.67px;"/><path d="M2244.03,399.306l-0,2902.18" style="fill:none;stroke:#fff;stroke-width:16.67px;"/><path d="M2402.36,399.306l0,2902.18" style="fill:none;stroke:#fff;stroke-width:16.67px;"/><path d="M2559.84,399.306l-0,2902.18" style="fill:none;stroke:#fff;stroke-width:16.67px;"/><path d="M2715.97,399.306l0,2902.18" style="fill:none;stroke:#fff;stroke-width:16.67px;"/><path d="M2874.18,399.306l0,2902.18" style="fill:none;stroke:#fff;stroke-width:16.67px;"/><path d="M3031.66,399.306l-0,2902.18" style="fill:none;stroke:#fff;stroke-width:16.67px;"/><path d="M3189.14,399.306l0,2902.18" style="fill:none;stroke:#fff;stroke-width:16.67px;"/></g><g id="Horizontal"><path d="M3310.98,511.65l-2921.18,0" style="fill:none;stroke:#fff;stroke-width:16.67px;"/><path d="M3310.98,669.856l-2921.18,0" style="fill:none;stroke:#fff;stroke-width:16.67px;"/><path d="M3310.98,827.337l-2921.18,-0" style="fill:none;stroke:#fff;stroke-width:16.67px;"/><path d="M3310.98,984.817l-2921.18,0" style="fill:none;stroke:#fff;stroke-width:16.67px;"/><path d="M3310.98,1142.3l-2921.18,0" style="fill:none;stroke:#fff;stroke-width:16.67px;"/><path d="M3310.98,1299.78l-2921.18,-0" style="fill:none;stroke:#fff;stroke-width:16.67px;"/><path d="M3310.98,1455.91l-2921.18,-0" style="fill:none;stroke:#fff;stroke-width:16.67px;"/><path d="M3310.98,1614.11l-2921.18,-0" style="fill:none;stroke:#fff;stroke-width:16.67px;"/><path d="M3310.98,1771.59l-2921.18,-0" style="fill:none;stroke:#fff;stroke-width:16.67px;"/><path d="M3310.98,1929.07l-2921.18,0" style="fill:none;stroke:#fff;stroke-width:16.67px;"/><path d="M3310.98,2086.55l-2921.18,-0" style="fill:none;stroke:#fff;stroke-width:16.67px;"/><path d="M3310.98,2244.03l-2921.18,-0" style="fill:none;stroke:#fff;stroke-width:16.67px;"/><path d="M3310.98,2402.36l-2921.18,0" style="fill:none;stroke:#fff;stroke-width:16.67px;"/><path d="M3310.98,2559.84l-2921.18,-0" style="fill:none;stroke:#fff;stroke-width:16.67px;"/><path d="M3310.98,2715.97l-2921.18,0" style="fill:none;stroke:#fff;stroke-width:16.67px;"/><path d="M3310.98,2874.18l-2921.18,0" style="fill:none;stroke:#fff;stroke-width:16.67px;"/><path d="M3310.98,3031.66l-2921.18,-0" style="fill:none;stroke:#fff;stroke-width:16.67px;"/><path d="M3310.98,3189.14l-2921.18,0" style="fill:none;stroke:#fff;stroke-width:16.67px;"/></g></g><text x="485.273px" y="310.594px" style="font-family:'Arial-BoldMT', 'Arial', sans-serif;font-weight:700;font-size:77.778px;fill:#fff;">1      2     3     4     5      6     7     8      9    10   1<tspan x="2080.51px 2123.77px " y="310.594px 310.594px ">1 </tspan>  12    13   14    15   16   17   18</text><g transform="matrix(1,0,0,1,90.3229,-72.6651)"><text x="144.632px" y="564px" style="font-family:'Arial-BoldMT', 'Arial', sans-serif;font-weight:700;font-size:77.778px;fill:#fff;">18</text><text x="144.632px" y="724.644px" style="font-family:'Arial-BoldMT', 'Arial', sans-serif;font-weight:700;font-size:77.778px;fill:#fff;">17</text><text x="144.632px" y="885.289px" style="font-family:'Arial-BoldMT', 'Arial', sans-serif;font-weight:700;font-size:77.778px;fill:#fff;">16</text><text x="144.632px" y="1045.93px" style="font-family:'Arial-BoldMT', 'Arial', sans-serif;font-weight:700;font-size:77.778px;fill:#fff;">15</text><text x="144.632px" y="1206.58px" style="font-family:'Arial-BoldMT', 'Arial', sans-serif;font-weight:700;font-size:77.778px;fill:#fff;">14</text><text x="144.632px" y="1367.22px" style="font-family:'Arial-BoldMT', 'Arial', sans-serif;font-weight:700;font-size:77.778px;fill:#fff;">13</text><text x="144.632px" y="1527.87px" style="font-family:'Arial-BoldMT', 'Arial', sans-serif;font-weight:700;font-size:77.778px;fill:#fff;">12</text><text x="144.632px" y="1688.51px" style="font-family:'Arial-BoldMT', 'Arial', sans-serif;font-weight:700;font-size:77.778px;fill:#fff;">1<tspan x="183.597px " y="1688.51px ">1</tspan></text><text x="144.632px" y="1849.16px" style="font-family:'Arial-BoldMT', 'Arial', sans-serif;font-weight:700;font-size:77.778px;fill:#fff;">10</text><text x="144.632px" y="2009.8px" style="font-family:'Arial-BoldMT', 'Arial', sans-serif;font-weight:700;font-size:77.778px;fill:#fff;">9</text><text x="144.632px" y="2170.45px" style="font-family:'Arial-BoldMT', 'Arial', sans-serif;font-weight:700;font-size:77.778px;fill:#fff;">8</text><text x="144.632px" y="2331.09px" style="font-family:'Arial-BoldMT', 'Arial', sans-serif;font-weight:700;font-size:77.778px;fill:#fff;">7</text><text x="144.632px" y="2491.73px" style="font-family:'Arial-BoldMT', 'Arial', sans-serif;font-weight:700;font-size:77.778px;fill:#fff;">6</text><text x="144.632px" y="2652.38px" style="font-family:'Arial-BoldMT', 'Arial', sans-serif;font-weight:700;font-size:77.778px;fill:#fff;">5</text><text x="144.632px" y="2813.02px" style="font-family:'Arial-BoldMT', 'Arial', sans-serif;font-weight:700;font-size:77.778px;fill:#fff;">4</text><text x="144.632px" y="2973.67px" style="font-family:'Arial-BoldMT', 'Arial', sans-serif;font-weight:700;font-size:77.778px;fill:#fff;">3</text><text x="144.632px" y="3134.31px" style="font-family:'Arial-BoldMT', 'Arial', sans-serif;font-weight:700;font-size:77.778px;fill:#fff;">2</text><text x="144.632px" y="3294.96px" style="font-family:'Arial-BoldMT', 'Arial', sans-serif;font-weight:700;font-size:77.778px;fill:#fff;">1</text></g><g transform="matrix(1,0,0,1,3252.75,-72.6651)"><text x="144.632px" y="564px" style="font-family:'Arial-BoldMT', 'Arial', sans-serif;font-weight:700;font-size:77.778px;fill:#fff;">18</text><text x="144.632px" y="724.644px" style="font-family:'Arial-BoldMT', 'Arial', sans-serif;font-weight:700;font-size:77.778px;fill:#fff;">17</text><text x="144.632px" y="885.289px" style="font-family:'Arial-BoldMT', 'Arial', sans-serif;font-weight:700;font-size:77.778px;fill:#fff;">16</text><text x="144.632px" y="1045.93px" style="font-family:'Arial-BoldMT', 'Arial', sans-serif;font-weight:700;font-size:77.778px;fill:#fff;">15</text><text x="144.632px" y="1206.58px" style="font-family:'Arial-BoldMT', 'Arial', sans-serif;font-weight:700;font-size:77.778px;fill:#fff;">14</text><text x="144.632px" y="1367.22px" style="font-family:'Arial-BoldMT', 'Arial', sans-serif;font-weight:700;font-size:77.778px;fill:#fff;">13</text><text x="144.632px" y="1527.87px" style="font-family:'Arial-BoldMT', 'Arial', sans-serif;font-weight:700;font-size:77.778px;fill:#fff;">12</text><text x="144.632px" y="1688.51px" style="font-family:'Arial-BoldMT', 'Arial', sans-serif;font-weight:700;font-size:77.778px;fill:#fff;">1<tspan x="183.597px " y="1688.51px ">1</tspan></text><text x="144.632px" y="1849.16px" style="font-family:'Arial-BoldMT', 'Arial', sans-serif;font-weight:700;font-size:77.778px;fill:#fff;">10</text><text x="144.632px" y="2009.8px" style="font-family:'Arial-BoldMT', 'Arial', sans-serif;font-weight:700;font-size:77.778px;fill:#fff;">9</text><text x="144.632px" y="2170.45px" style="font-family:'Arial-BoldMT', 'Arial', sans-serif;font-weight:700;font-size:77.778px;fill:#fff;">8</text><text x="144.632px" y="2331.09px" style="font-family:'Arial-BoldMT', 'Arial', sans-serif;font-weight:700;font-size:77.778px;fill:#fff;">7</text><text x="144.632px" y="2491.73px" style="font-family:'Arial-BoldMT', 'Arial', sans-serif;font-weight:700;font-size:77.778px;fill:#fff;">6</text><text x="144.632px" y="2652.38px" style="font-family:'Arial-BoldMT', 'Arial', sans-serif;font-weight:700;font-size:77.778px;fill:#fff;">5</text><text x="144.632px" y="2813.02px" style="font-family:'Arial-BoldMT', 'Arial', sans-serif;font-weight:700;font-size:77.778px;fill:#fff;">4</text><text x="144.632px" y="2973.67px" style="font-family:'Arial-BoldMT', 'Arial', sans-serif;font-weight:700;font-size:77.778px;fill:#fff;">3</text><text x="144.632px" y="3134.31px" style="font-family:'Arial-BoldMT', 'Arial', sans-serif;font-weight:700;font-size:77.778px;fill:#fff;">2</text><text x="144.632px" y="3294.96px" style="font-family:'Arial-BoldMT', 'Arial', sans-serif;font-weight:700;font-size:77.778px;fill:#fff;">1</text></g><path d="M3656.04,3432.13l-0,189.918l-191.475,0" style="fill:none;stroke:#fff;stroke-width:16.67px;"/><path d="M40.321,3467.64l0,189.918l191.475,-0" style="fill:none;stroke:#fff;stroke-width:16.67px;"/><path d="M41.068,232.543l0,-189.918l191.475,-0" style="fill:none;stroke:#fff;stroke-width:16.67px;"/><path d="M3661.9,231.377l-0,-189.918l-191.475,-0" style="fill:none;stroke:#fff;stroke-width:16.67px;"/><path d="M2471.5,3383.29c0,0 -1.025,138.861 -0.826,173.5c0.088,15.21 18.816,29.839 34.015,30.417c26.585,1.01 90.235,2.224 90.235,0.945c0.707,18.098 0.063,37.921 0.327,53.458c-0,0 -90.684,3.629 -116.941,-0.653c-24.903,-4.061 -64.873,-42.501 -64.996,-63.356c-0.267,-45.115 0.76,-193.984 0.76,-193.984c17.648,0.071 41.95,-0.276 57.426,-0.327Z" style="fill:#fff;fill-rule:nonzero;"/><g transform="matrix(1,0,0,0.841754,0,22.0975)"><text x="1803.99px" y="4301.16px" style="font-family:'Atlanta-Demi', 'Atlanta', sans-serif;font-weight:600;font-size:406.092px;fill:#fff;">V</text></g><path d="M1481.29,3395.1c-0,0 -103.019,1.275 -151.317,-0.653c-67.395,-2.689 -62.076,140.288 0.571,140.217c39.397,-0.044 58.653,-1.457 103,-1.387c30.25,0.047 28.514,66.472 0,66.925c-39.419,0.625 -107.626,-0.436 -139.645,-0.98l0.408,44.481c-0,0 115.84,0.109 156.785,0.245c22.692,0.075 38.322,-31.542 42.358,-53.295c4.197,-22.618 -6.694,-88.557 -51.908,-88.146c-36.764,0.335 -55.072,-0.987 -92.879,-0.489c-34.407,0.452 -42.635,-68.863 -1.877,-69.619c36.347,-0.674 84.719,0.166 134.83,-0.898l-0.326,-36.401Z" style="fill:#fff;stroke:#fff;stroke-width:16.67px;"/><path d="M1664.85,3391.69l0,39.612c-7.269,0.725 -14.115,2.458 -20.539,5.199c-8.737,3.728 -16.258,9.153 -22.564,16.274c-6.307,7.121 -11.282,16.218 -14.927,27.29c-3.645,11.071 -5.468,23.506 -5.468,37.304c0,13.909 1.823,26.483 5.468,37.721c3.645,11.239 8.794,20.558 15.447,27.958c6.654,7.399 14.291,12.935 22.912,16.607c6.132,2.612 12.69,4.295 19.671,5.049l0,39.629c-16.291,-0.804 -31.093,-3.819 -44.405,-9.043c-15.737,-6.176 -28.87,-14.883 -39.4,-26.121c-10.53,-11.239 -18.485,-24.758 -23.866,-40.559c-5.381,-15.801 -8.071,-32.881 -8.071,-51.241c-0,-18.805 2.806,-36.053 8.418,-51.742c5.612,-15.689 13.741,-29.042 24.387,-40.058c10.645,-11.016 23.605,-19.445 38.879,-25.287c13.143,-5.027 27.829,-7.891 44.058,-8.592Zm19.129,0.147c21.686,1.264 40.63,6.305 56.836,15.122c18.919,10.292 33.239,24.925 42.959,43.897c9.72,18.972 14.58,41.254 14.58,66.847c-0,18.916 -2.662,36.108 -7.985,51.575c-5.322,15.466 -13.307,28.875 -23.952,40.225c-10.646,11.349 -23.721,20.029 -39.227,26.037c-12.852,4.981 -27.255,7.897 -43.211,8.75l-0,-39.817c9.218,-1.247 17.865,-4.189 25.941,-8.824c11.051,-6.342 19.845,-16.134 26.383,-29.376c6.537,-13.241 9.806,-29.543 9.806,-48.904c0,-17.915 -3.008,-33.438 -9.025,-46.568c-6.017,-13.13 -14.609,-23.061 -25.775,-29.793c-8.218,-4.954 -17.328,-8.085 -27.33,-9.394l-0,-39.777Z" style="fill:#fff;fill-rule:nonzero;"/><path d="M2211.29,3388.5l-0,39.612c-7.27,0.725 -14.116,2.458 -20.54,5.199c-8.736,3.728 -16.257,9.152 -22.564,16.274c-6.306,7.121 -11.282,16.218 -14.927,27.29c-3.645,11.071 -5.467,23.506 -5.467,37.304c-0,13.909 1.822,26.483 5.467,37.721c3.645,11.239 8.794,20.558 15.448,27.957c6.653,7.4 14.29,12.936 22.911,16.608c6.133,2.612 12.69,4.295 19.672,5.049l-0,39.629c-16.291,-0.805 -31.094,-3.819 -44.406,-9.043c-15.737,-6.176 -28.87,-14.883 -39.4,-26.121c-10.53,-11.239 -18.485,-24.758 -23.866,-40.559c-5.38,-15.801 -8.071,-32.881 -8.071,-51.241c0,-18.805 2.806,-36.053 8.419,-51.742c5.612,-15.69 13.74,-29.042 24.386,-40.058c10.646,-11.016 23.605,-19.445 38.88,-25.287c13.143,-5.027 27.829,-7.891 44.058,-8.592Zm19.128,0.147c21.687,1.264 40.631,6.305 56.837,15.121c18.919,10.293 33.238,24.925 42.958,43.897c9.72,18.972 14.58,41.255 14.58,66.848c0,18.916 -2.661,36.108 -7.984,51.574c-5.323,15.467 -13.307,28.876 -23.953,40.226c-10.645,11.349 -23.721,20.029 -39.226,26.037c-12.853,4.981 -27.256,7.897 -43.212,8.75l0,-39.817c9.218,-1.247 17.866,-4.189 25.942,-8.824c11.05,-6.342 19.844,-16.134 26.382,-29.376c6.538,-13.241 9.807,-29.543 9.807,-48.904c-0,-17.915 -3.009,-33.438 -9.026,-46.568c-6.017,-13.13 -14.609,-23.061 -25.775,-29.793c-8.217,-4.954 -17.327,-8.085 -27.33,-9.394l0,-39.777Z" style="fill:#fff;fill-rule:nonzero;"/></svg>